Coordinates
version=1
nRows=13
nColumns=34
inDegrees=yes

Units are S.I. units (second, meters, Newtons, ...)
If the header above contains a line with 'inDegrees', this indicates whether rotational values are in degrees (yes) or radians (no).

endheader
time	pelvis_tilt	pelvis_list	pelvis_rotation	pelvis_tx	pelvis_ty	pelvis_tz	hip_flexion_l	hip_adduction_l	hip_rotation_l	hip_flexion_r	hip_adduction_r	hip_rotation_r	knee_angle_l_beta	knee_angle_r_beta	knee_angle_l	knee_angle_r	ankle_angle_l	ankle_angle_r	subtalar_angle_l	subtalar_angle_r	mtp_angle_l	mtp_angle_r	lumbar_ext	lumbar_bend	lumbar_rota	shoulder_flexion_r	shoulder_adduction_r	shoulder_rotation_r	elbow_flexion_r	shoulder_flexion_l	shoulder_adduction_l	shoulder_rotation_l	elbow_flexion_l
      0.52000000	     -3.64391693	     -3.59157187	     -3.06842827	     -0.52508478	      0.94867609	      0.31016555	     23.28291726	     -5.06538097	      0.88682584	     -3.39497327	      8.12803487	      8.99928390	      0.24134334	      0.10479818	    -13.82795506	     -6.00449342	      3.40492573	     12.50853480	     -3.59829484	     -5.70778933	      1.68192854	     -4.24895257	     -8.86796104	     -0.92137565	      8.49162263	     -2.13053454	     -5.83502760	     -7.93544135	     52.20364609	    -14.93725611	      1.14491238	    -19.47736371	     34.06898150
      0.53000000	     -3.57860949	     -3.76772968	     -2.92837735	     -0.51653141	      0.94740917	      0.30965960	     23.10758388	     -4.99784834	      2.60158976	     -3.96529022	      8.25118585	      8.46066962	      0.19544721	      0.10714194	    -11.19830017	     -6.13878089	      2.52952424	     13.08427307	     -5.98393221	     -4.97851265	     -2.81417513	     -3.94484245	     -9.00892860	     -0.72076355	      8.32080390	     -1.92128244	     -5.85784066	     -7.75850583	     52.37644087	    -15.21372563	      1.27049338	    -19.62710713	     34.15790938
      0.54000000	     -3.50317367	     -3.97255437	     -3.22579923	     -0.50787697	      0.94619621	      0.30992918	     22.86291954	     -5.24247927	      3.25645147	     -4.55222479	      8.40667488	      8.68771135	      0.15301845	      0.11070736	     -8.76731157	     -6.34306445	      1.72271522	     13.52904905	     -7.82725579	     -4.68462191	     -4.08688088	     -3.77244702	     -9.10768837	     -0.52961933	      8.62979553	     -1.76814316	     -5.89057653	     -7.59556509	     52.48435537	    -15.38440206	      1.36670381	    -19.61262588	     33.99511373
      0.55000000	     -3.43209202	     -4.23933504	     -3.38101058	     -0.49915758	      0.94493188	      0.30999765	     22.71218942	     -5.50525521	      4.07042469	     -5.13306609	      8.62178647	      8.67783117	      0.11829274	      0.11442768	     -6.77767501	     -6.55622319	      0.96020283	     13.95096206	     -9.47333371	     -4.18447874	     -5.39909198	     -3.55056942	     -9.21131837	     -0.27168987	      8.77905724	     -1.61452412	     -5.87044365	     -7.46410956	     52.54852211	    -15.52875705	      1.44859898	    -19.61577083	     33.84618916
      0.56000000	     -3.35148926	     -4.38443203	     -3.48488454	     -0.49024946	      0.94358128	      0.30993534	     22.60622115	     -5.60954010	      4.91105160	     -5.71384046	      8.69858008	      8.45275813	      0.09120915	      0.11848119	     -5.22589963	     -6.78847231	      0.28470277	     14.49529789	    -11.15016530	     -3.57762751	     -7.10381005	     -3.18517756	     -9.31088803	     -0.14983183	      8.87751161	     -1.51902659	     -5.83463269	     -7.37115302	     52.65201141	    -15.67513693	      1.47644809	    -19.59386054	     33.80409285
      0.57000000	     -3.44852810	     -4.54747726	     -3.50477101	     -0.48130589	      0.94192833	      0.30995651	     22.86428764	     -5.74325291	      5.06037952	     -6.11157586	      8.84533969	      8.48161517	      0.07575431	      0.12236302	     -4.34040214	     -7.01088458	      0.40265040	     14.74481044	    -11.14660363	     -3.58747537	     -7.24243835	     -3.12780260	     -9.22757118	     -0.01537833	      8.81713206	     -1.44060506	     -5.67952799	     -7.36111764	     52.73961097	    -15.80826323	      1.45971650	    -19.58407551	     33.74106850
      0.58000000	     -3.43117099	     -4.73193163	     -3.66287675	     -0.47227393	      0.94053506	      0.30979376	     22.93615879	     -5.90814062	      5.43897668	     -6.60959218	      8.95637479	      8.54249950	      0.06447957	      0.12758773	     -3.69440727	     -7.31023846	      0.31415747	     15.15366689	    -11.24709986	     -3.40296808	     -7.47906125	     -3.00609658	     -9.22842492	      0.18375103	      8.99362777	     -1.39886430	     -5.62377578	     -7.28565154	     52.65216859	    -15.87869672	      1.49579377	    -19.55764236	     33.66553718
      0.59000000	     -3.20962568	     -4.82947257	     -3.80412322	     -0.46323996	      0.93948577	      0.30962610	     22.91118922	     -5.93076445	      5.75471337	     -7.28586143	      8.94299262	      8.42634612	      0.06403136	      0.13414072	     -3.66872665	     -7.68569697	      0.10939128	     15.75425617	    -11.90329116	     -2.51133131	     -8.05114224	     -2.68158616	     -9.48903017	      0.24875357	      9.07104346	     -1.32412889	     -5.54893882	     -7.22126026	     52.68801463	    -15.85906662	      1.50572285	    -19.43452305	     33.57317080
      0.60000000	     -3.24167068	     -4.85990191	     -3.87420780	     -0.45361382	      0.93807061	      0.30946807	     23.09432850	     -5.87365207	      5.84650225	     -7.80237079	      8.90386668	      8.43389396	      0.06662909	      0.13731408	     -3.81756589	     -7.86751729	      0.03201436	     15.78949514	    -11.88161390	     -2.47181838	     -8.06642192	     -2.65280024	     -9.36580604	      0.23918869	      9.09495589	     -1.42621990	     -5.38948402	     -7.19619335	     52.66960559	    -15.94351497	      1.44542461	    -19.44221903	     33.54738192
      0.61000000	     -2.93225869	     -4.64829910	     -3.72614032	     -0.44424298	      0.93714827	      0.30858950	     23.16946090	     -5.41239453	      5.99132047	     -8.51837024	      8.52828694	      7.58936530	      0.08339232	      0.14450295	     -4.77802776	     -8.27940902	      0.18760834	     16.72894090	    -11.53220044	     -0.82619190	     -8.44203832	     -1.95408447	     -9.70810620	     -0.00047005	      8.90794781	     -1.44436475	     -5.20590954	     -7.33843981	     52.63779302	    -15.84273984	      1.36901847	    -19.29551290	     33.50991373
      0.62000000	     -2.82617292	     -4.55428833	     -3.73229152	     -0.43471771	      0.93606267	      0.30806692	     23.37371587	     -5.14180407	      6.08342798	     -9.10362467	      8.34191125	      7.68416261	      0.10175903	      0.14966690	     -5.83036310	     -8.57528188	      0.01785385	     16.83405859	    -11.42170029	     -0.75561334	     -8.35457454	     -1.88745819	     -9.77693991	     -0.13023075	      8.89372173	     -1.54013204	     -5.03869956	     -7.36852848	     52.50250215	    -15.73772145	      1.29379125	    -19.27382552	     33.49107564
      0.63000000	     -2.68303415	     -4.39192060	     -3.68627355	     -0.42498210	      0.93504941	      0.30741853	     23.55925969	     -4.77227533	      6.06223936	     -9.70535293	      8.08482874	      7.63267528	      0.12516983	      0.15582366	     -7.17170316	     -8.92803781	     -0.10253397	     17.00517486	    -11.19368069	     -0.65318230	     -8.17799083	     -1.82377564	     -9.87010987	     -0.33146106	      8.77180749	     -1.66255051	     -4.83244081	     -7.43936894	     52.39958009	    -15.63416590	      1.20282615	    -19.22124322	     33.47640491
      0.64000000	     -2.52193198	     -4.15348216	     -3.58615465	     -0.41501388	      0.93413859	      0.30665854	     23.72253316	     -4.30854244	      5.94125882	    -10.30810410	      7.75284892	      7.45664471	      0.15171094	      0.16265879	     -8.69239654	     -9.31966195	     -0.22652180	     17.16341625	    -10.78212602	     -0.47150354	     -7.90668907	     -1.77019547	     -9.97046180	     -0.60609985	      8.58026138	     -1.83438038	     -4.58287472	     -7.52972251	     52.29331272	    -15.51009123	      1.08849656	    -19.15436402	     33.48368529
